<svg id="Camada_1" data-name="Camada 1" xmlns="http://www.w3.org/2000/svg" viewBox="0 0 146.81 30.67"><defs><style>.cls-1{fill:#7f4997;}</style></defs><path class="cls-1" d="M21.66,5.79A15.34,15.34,0,1,0,37,21.12,15.33,15.33,0,0,0,21.66,5.79ZM18,7.79a17.11,17.11,0,0,0-3.19,4.08H11.39A13.93,13.93,0,0,1,18,7.79ZM14.08,19l2.43,1.41H13.94C14,19.89,14,19.42,14.08,19Zm-.39-4.65-1.59-.92h2C13.93,13.69,13.81,14,13.69,14.31ZM8.85,15.94l3.81,2.2a20.28,20.28,0,0,0-.24,2.23H7.86A13.62,13.62,0,0,1,8.85,15.94Zm1.36,12.92a13.76,13.76,0,0,1-2.35-7H12.4a19.72,19.72,0,0,0,1.47,7Zm1.18,1.51h3.19a17.38,17.38,0,0,0,2.78,3.89A13.89,13.89,0,0,1,11.39,30.37Zm9.51,4.55-.26,0a14.88,14.88,0,0,1-4.25-4.53H20.9Zm0-6.06H15.57a17.43,17.43,0,0,1-1.65-7h5.21l1.77,1Zm0-10.39L15,15.09a17.51,17.51,0,0,1,.76-1.7h5.1Zm0-6.6H16.68A14.86,14.86,0,0,1,20.9,7.62Zm11,0H28.85a17.37,17.37,0,0,0-3-3.93A13.86,13.86,0,0,1,31.92,11.87ZM22.42,7.4A14.56,14.56,0,0,1,27,11.87H22.42Zm0,6h5.46a17.4,17.4,0,0,1,1.86,7H24.19l-1.77-1Zm7.34,8.49c0,.55-.06,1.1-.13,1.63l-2.82-1.63Zm-7.34,1.9,6.29,3.63c-.18.5-.38,1-.6,1.45H22.42Zm.67,11.09-.67.05V30.37h4.87A14.86,14.86,0,0,1,23.09,34.87Zm3.41-.8a17.55,17.55,0,0,0,2.6-3.7h2.82A13.78,13.78,0,0,1,26.5,34.07Zm3.31-5.21c.09-.22.18-.44.26-.67l1.15.67Zm4.66-2.56-3.41-2a19.74,19.74,0,0,0,.22-2.45h4.18A13.76,13.76,0,0,1,34.47,26.3Zm1-5.93h-4.2a19.22,19.22,0,0,0-1.65-7h3.5A13.76,13.76,0,0,1,35.46,20.37Z" transform="translate(-6.32 -5.79)"/><path class="cls-1" d="M47.31,28.86l-.8-2.26H42.9l-.77,2.26H39.42l3.77-10.24h3L50,28.86Zm-3.73-4.38h2.23l-1.11-3.2Z" transform="translate(-6.32 -5.79)"/><path class="cls-1" d="M59.2,23.74c0,3.09-2.31,5.12-5.63,5.12H50.33V18.62h3.24C56.9,18.62,59.2,20.66,59.2,23.74ZM52.94,26.5h.72a2.62,2.62,0,0,0,2.9-2.76A2.62,2.62,0,0,0,53.66,21h-.72Z" transform="translate(-6.32 -5.79)"/><path class="cls-1" d="M61.81,28.86H59.35l1.43-10.24h3l1.92,6.29h0l1.87-6.29h3L72,28.86H69.55l-.71-6.7h-.06l-2,6.7h-2.2l-2-6.69h-.06Z" transform="translate(-6.32 -5.79)"/><path class="cls-1" d="M72.79,18.62H75.4V28.86H72.79Z" transform="translate(-6.32 -5.79)"/><path class="cls-1" d="M85.84,28.86H83.37l-4.15-6.11h0v6.11H76.72V18.62h2.5l4.12,6h0v-6h2.49Z" transform="translate(-6.32 -5.79)"/><path class="cls-1" d="M87.16,18.62h2.61V28.86H87.16Z" transform="translate(-6.32 -5.79)"/><path class="cls-1" d="M97.29,19.1v2.33a4.94,4.94,0,0,0-2.58-.77c-.87,0-1.39.32-1.39.81s.51.7,1.46,1.07c1.41.53,3.13,1.19,3.13,3.25s-1.48,3.29-3.9,3.29a5.81,5.81,0,0,1-3.2-.91V25.72a4.8,4.8,0,0,0,2.92,1.1c1,0,1.53-.4,1.53-.95s-.72-.88-1.69-1.27c-1.2-.45-2.82-1.14-2.82-3s1.42-3.16,3.78-3.16A5.63,5.63,0,0,1,97.29,19.1Z" transform="translate(-6.32 -5.79)"/><path class="cls-1" d="M100.75,21H97.83V18.62h8.43V21h-2.91v7.89h-2.6Z" transform="translate(-6.32 -5.79)"/><path class="cls-1" d="M115,28.86h-3.09l-2.34-3.39h-.09v3.39h-2.6V18.62h3.44c2.51,0,4.18,1.16,4.18,3.44a3.19,3.19,0,0,1-2.38,3.11Zm-4.73-5.37c1,0,1.6-.45,1.6-1.26S111.19,21,110.24,21h-.8v2.52Z" transform="translate(-6.32 -5.79)"/><path class="cls-1" d="M122.3,28.86l-.8-2.26h-3.61l-.77,2.26h-2.7l3.76-10.24h3L125,28.86Zm-3.72-4.38h2.22l-1.11-3.2Z" transform="translate(-6.32 -5.79)"/><path class="cls-1" d="M127,23.74a2.93,2.93,0,0,0,3,3,4.25,4.25,0,0,0,2.56-.92v2.59a6.32,6.32,0,0,1-2.2.68,1.82,1.82,0,0,1-.93,1.67h-2.39c.93-.65,1.22-.92,1.33-1.8a5.2,5.2,0,0,1-4-5.2,5.23,5.23,0,0,1,5.34-5.37,6.24,6.24,0,0,1,2.86.7v2.55a4.28,4.28,0,0,0-2.56-.85A2.91,2.91,0,0,0,127,23.74Z" transform="translate(-6.32 -5.79)"/><path class="cls-1" d="M140.58,28.86l-.79-2.26h-3.62l-.76,2.26H132.7l3.76-10.24h3l3.82,10.24Zm-1.34-11.2c-1,0-1.51-.77-2.28-.77a.67.67,0,0,0-.69.74h-1.45c-.1-1.57.74-2.29,1.86-2.29s1.54.76,2.3.76a.65.65,0,0,0,.68-.74h1.47C141.21,16.93,140.39,17.66,139.24,17.66Zm-2.38,6.82h2.23L138,21.28Z" transform="translate(-6.32 -5.79)"/><path class="cls-1" d="M142.4,23.74a5.37,5.37,0,1,1,10.73,0,5.37,5.37,0,1,1-10.73,0Zm8.1,0a2.75,2.75,0,1,0-5.48,0,2.75,2.75,0,1,0,5.48,0Z" transform="translate(-6.32 -5.79)"/><path class="cls-1" d="M44.8,8.41v.9a3.49,3.49,0,0,0-2-.68c-.92,0-1.76.46-1.76,1.43s.65,1.25,1.92,1.83,2.27,1.17,2.27,2.48a2.5,2.5,0,0,1-2.73,2.44A3.89,3.89,0,0,1,40.16,16V15a3.35,3.35,0,0,0,2.35,1,1.72,1.72,0,0,0,1.92-1.59c0-.88-.65-1.31-2-1.91s-2.24-1.11-2.24-2.41a2.32,2.32,0,0,1,2.59-2.27A3.92,3.92,0,0,1,44.8,8.41Z" transform="translate(-6.32 -5.79)"/><path class="cls-1" d="M47.11,8h4.47v.75H47.89v3.07h3.44v.74H47.89v3.27h3.69v.75H47.11Z" transform="translate(-6.32 -5.79)"/><path class="cls-1" d="M57.16,16.79A4.24,4.24,0,0,1,53,12.31a4.22,4.22,0,0,1,4.2-4.43,4.33,4.33,0,0,1,2.25.57v.87a4.13,4.13,0,0,0-2.26-.68,3.47,3.47,0,0,0-3.37,3.68A3.49,3.49,0,0,0,57.15,16a4.06,4.06,0,0,0,2.26-.69v.89A4.38,4.38,0,0,1,57.16,16.79Z" transform="translate(-6.32 -5.79)"/><path class="cls-1" d="M66.59,16.62H65.52L62.13,13H62v3.65h-.79V8h2.13c1.95,0,2.89,1.06,2.89,2.46,0,1.55-1.12,2.47-3,2.47h-.1Zm-3.44-4.35c1.66,0,2.28-.72,2.28-1.77s-.73-1.71-2.16-1.71H62v3.48Z" transform="translate(-6.32 -5.79)"/><path class="cls-1" d="M68.26,8h4.47v.75H69.05v3.07h3.43v.74H69.05v3.27h3.68v.75H68.26Z" transform="translate(-6.32 -5.79)"/><path class="cls-1" d="M76.6,8.79H73.83V8h6.35v.75H77.4v7.83h-.8Z" transform="translate(-6.32 -5.79)"/><path class="cls-1" d="M86.69,16.62,85.6,13.84H81.76l-1.1,2.78h-.85L83.24,8h.88l3.44,8.58Zm-4.64-3.54h3.26L83.68,9Z" transform="translate(-6.32 -5.79)"/><path class="cls-1" d="M94.36,16.62H93.28L89.9,13h-.13v3.65H89V8h2.13C93.06,8,94,9.1,94,10.5,94,12.05,92.88,13,91,13h-.11Zm-3.45-4.35c1.67,0,2.28-.72,2.28-1.77S92.46,8.79,91,8.79H89.77v3.48Z" transform="translate(-6.32 -5.79)"/><path class="cls-1" d="M96,8h.79v8.58H96Z" transform="translate(-6.32 -5.79)"/><path class="cls-1" d="M105.13,16.62,104,13.84H100.2l-1.1,2.78h-.86L101.67,8h.88L106,16.62Zm-4.65-3.54h3.26L102.11,9Z" transform="translate(-6.32 -5.79)"/><path class="cls-1" d="M116.73,12.32c0,2.61-1.83,4.3-4.53,4.3h-1.91V8h1.91C115,8,116.73,9.75,116.73,12.32Zm-5.66,3.55h1.17a3.37,3.37,0,0,0,3.67-3.53,3.36,3.36,0,0,0-3.65-3.55h-1.19Z" transform="translate(-6.32 -5.79)"/><path class="cls-1" d="M118.68,8h4.47v.75h-3.69v3.07h3.44v.74h-3.44v3.27h3.69v.75h-4.47Z" transform="translate(-6.32 -5.79)"/><path class="cls-1" d="M39.42,31.39h.86c.84,0,1.41.43,1.41,1.19s-.57,1.22-1.41,1.22h-.51v1.34h-.35Zm1.91,1.19c0-.55-.39-.86-1-.86h-.53v1.74h.53C40.94,33.46,41.33,33.14,41.33,32.58Z" transform="translate(-6.32 -5.79)"/><path class="cls-1" d="M44.79,35.14h-.47l-1.48-1.59h-.05v1.59h-.35V31.39h.93c.86,0,1.26.46,1.26,1.07s-.49,1.09-1.3,1.09h0Zm-1.5-1.9c.72,0,1-.32,1-.78s-.32-.74-.94-.74h-.55v1.52Z" transform="translate(-6.32 -5.79)"/><path class="cls-1" d="M45.52,31.39h1.95v.33H45.86v1.34h1.5v.32h-1.5v1.43h1.61v.33H45.52Z" transform="translate(-6.32 -5.79)"/><path class="cls-1" d="M48.38,31.39h2v.33H48.73v1.43h1.56v.32H48.73v1.67h-.35Z" transform="translate(-6.32 -5.79)"/><path class="cls-1" d="M51.2,31.39h2v.33H51.54v1.34H53v.32h-1.5v1.43h1.62v.33h-2Z" transform="translate(-6.32 -5.79)"/><path class="cls-1" d="M54.07,31.39h.34v3.75h-.34Z" transform="translate(-6.32 -5.79)"/><path class="cls-1" d="M56.29,31.72H55.08v-.33h2.78v.33H56.64v3.42h-.35Z" transform="translate(-6.32 -5.79)"/><path class="cls-1" d="M58.47,33.75V31.39h.35v2.39a1,1,0,0,0,1,1.1,1,1,0,0,0,1-1.11V31.39h.35v2.35a1.35,1.35,0,0,1-1.4,1.47A1.33,1.33,0,0,1,58.47,33.75Z" transform="translate(-6.32 -5.79)"/><path class="cls-1" d="M64.64,35.14h-.47l-1.48-1.59h-.06v1.59h-.34V31.39h.93c.85,0,1.26.46,1.26,1.07s-.49,1.09-1.3,1.09h0Zm-1.51-1.9c.73,0,1-.32,1-.78s-.32-.74-.95-.74h-.55v1.52Z" transform="translate(-6.32 -5.79)"/><path class="cls-1" d="M67.9,35.14l-.48-1.22H65.74l-.48,1.22h-.37l1.5-3.75h.38l1.5,3.75Zm-2-1.55h1.42l-.71-1.79Z" transform="translate(-6.32 -5.79)"/><path class="cls-1" d="M73,33.26a1.82,1.82,0,0,1-2,1.88h-.83V31.39H71A1.81,1.81,0,0,1,73,33.26Zm-2.47,1.55H71a1.55,1.55,0,1,0,0-3.09h-.52Z" transform="translate(-6.32 -5.79)"/><path class="cls-1" d="M76.25,35.14l-.48-1.22H74.09l-.48,1.22h-.37l1.5-3.75h.38l1.51,3.75Zm-2-1.55h1.42l-.71-1.79Z" transform="translate(-6.32 -5.79)"/><path class="cls-1" d="M78.5,31.39h2v.33H78.84v1.34h1.5v.32h-1.5v1.43h1.61v.33h-2Z" transform="translate(-6.32 -5.79)"/><path class="cls-1" d="M83.17,31.55v.39a1.56,1.56,0,0,0-.87-.29c-.4,0-.77.2-.77.62s.28.55.84.8,1,.52,1,1.09a1.09,1.09,0,0,1-1.19,1.06,1.66,1.66,0,0,1-1-.35v-.43a1.45,1.45,0,0,0,1,.44.75.75,0,0,0,.84-.69c0-.39-.28-.57-.85-.84s-1-.48-1-1.05a1,1,0,0,1,1.13-1A1.68,1.68,0,0,1,83.17,31.55Z" transform="translate(-6.32 -5.79)"/><path class="cls-1" d="M85,31.72H83.74v-.33h2.77v.33H85.3v3.42H85Z" transform="translate(-6.32 -5.79)"/><path class="cls-1" d="M89.36,35.14l-.48-1.22H87.2l-.48,1.22h-.37l1.5-3.75h.38l1.51,3.75ZM88.84,31h-.36L88,30.37,87.6,31h-.35l.66-.83h.26Zm-1.51,2.64h1.42L88,31.8Z" transform="translate(-6.32 -5.79)"/><path class="cls-1" d="M93.24,35.14h-.31L90.71,32h0v3.19h-.34V31.39h.36l2.17,3.14h0V31.39h.34Z" transform="translate(-6.32 -5.79)"/><path class="cls-1" d="M95.93,35.21a1.95,1.95,0,1,1,1-3.64V32a1.78,1.78,0,0,0-1-.3,1.62,1.62,0,0,0,0,3.22,1.78,1.78,0,0,0,1-.3V35A1.88,1.88,0,0,1,95.93,35.21Z" transform="translate(-6.32 -5.79)"/><path class="cls-1" d="M97.7,31.39H98v3.75H97.7Z" transform="translate(-6.32 -5.79)"/><path class="cls-1" d="M101.68,35.14l-.48-1.22H99.52L99,35.14h-.37l1.5-3.75h.38l1.51,3.75Zm-2-1.55h1.42l-.71-1.79Z" transform="translate(-6.32 -5.79)"/><path class="cls-1" d="M104.55,31.72h-1.21v-.33h2.77v.33H104.9v3.42h-.35Z" transform="translate(-6.32 -5.79)"/><path class="cls-1" d="M106.73,33.75V31.39h.35v2.39a1,1,0,0,0,1,1.1,1,1,0,0,0,1.05-1.11V31.39h.35v2.35a1.35,1.35,0,0,1-1.4,1.47A1.33,1.33,0,0,1,106.73,33.75Z" transform="translate(-6.32 -5.79)"/><path class="cls-1" d="M112.9,35.14h-.47L111,33.55h-.06v1.59h-.34V31.39h.93c.85,0,1.26.46,1.26,1.07s-.49,1.09-1.3,1.09h0Zm-1.51-1.9c.73,0,1-.32,1-.78s-.32-.74-1-.74h-.55v1.52Z" transform="translate(-6.32 -5.79)"/><path class="cls-1" d="M114.42,30.12l-.68.83h-.31l.59-.83Zm-.8,1.27H114v3.75h-.35Z" transform="translate(-6.32 -5.79)"/><path class="cls-1" d="M116.88,31.55v.39a1.57,1.57,0,0,0-.88-.29c-.4,0-.77.2-.77.62s.29.55.84.8,1,.52,1,1.09a1.1,1.1,0,0,1-1.2,1.06,1.66,1.66,0,0,1-1-.35v-.43a1.47,1.47,0,0,0,1,.44.74.74,0,0,0,.83-.69c0-.39-.28-.57-.85-.84s-1-.48-1-1.05a1,1,0,0,1,1.13-1A1.75,1.75,0,0,1,116.88,31.55Z" transform="translate(-6.32 -5.79)"/><path class="cls-1" d="M118.66,31.72h-1.22v-.33h2.78v.33H119v3.42h-.35Z" transform="translate(-6.32 -5.79)"/><path class="cls-1" d="M120.88,31.39h.35v3.75h-.35Z" transform="translate(-6.32 -5.79)"/><path class="cls-1" d="M123.92,35.21a1.95,1.95,0,1,1,1-3.64V32a1.78,1.78,0,0,0-1-.3,1.62,1.62,0,0,0,0,3.22,1.78,1.78,0,0,0,1-.3V35A1.88,1.88,0,0,1,123.92,35.21Z" transform="translate(-6.32 -5.79)"/><path class="cls-1" d="M128.22,35.14l-.48-1.22h-1.68l-.48,1.22h-.37l1.5-3.75h.38l1.51,3.75Zm-2-1.55h1.42l-.71-1.79Z" transform="translate(-6.32 -5.79)"/><path class="cls-1" d="M133.29,33.26a1.83,1.83,0,0,1-2,1.88h-.84V31.39h.84A1.82,1.82,0,0,1,133.29,33.26Zm-2.48,1.55h.51a1.55,1.55,0,1,0,0-3.09h-.52Z" transform="translate(-6.32 -5.79)"/><path class="cls-1" d="M134.13,31.39h2v.33h-1.61v1.34H136v.32h-1.5v1.43h1.61v.33h-2Z" transform="translate(-6.32 -5.79)"/><path class="cls-1" d="M140.22,31.55v.39a1.54,1.54,0,0,0-.87-.29c-.4,0-.77.2-.77.62s.28.55.84.8,1,.52,1,1.09a1.09,1.09,0,0,1-1.19,1.06,1.66,1.66,0,0,1-1-.35v-.43a1.45,1.45,0,0,0,1,.44.75.75,0,0,0,.84-.69c0-.39-.28-.57-.85-.84s-1-.48-1-1.05a1,1,0,0,1,1.13-1A1.68,1.68,0,0,1,140.22,31.55Z" transform="translate(-6.32 -5.79)"/><path class="cls-1" d="M143.72,35.14l-.48-1.22h-1.68l-.48,1.22h-.37l1.5-3.75h.39l1.5,3.75Zm-2-1.55h1.43l-.72-1.79Z" transform="translate(-6.32 -5.79)"/><path class="cls-1" d="M144.72,31.39h.34v3.42h1.7v.33h-2Z" transform="translate(-6.32 -5.79)"/><path class="cls-1" d="M147.66,31.72h-1.21v-.33h2.77v.33H148v3.42h-.35Z" transform="translate(-6.32 -5.79)"/><path class="cls-1" d="M149.45,33.27a1.84,1.84,0,1,1,1.84,1.94A1.86,1.86,0,0,1,149.45,33.27Zm3.32,0a1.49,1.49,0,1,0-1.48,1.61A1.51,1.51,0,0,0,152.77,33.27Z" transform="translate(-6.32 -5.79)"/></svg>